<svg width="324" height="123" viewBox="0 0 324 123" fill="none" xmlns="http://www.w3.org/2000/svg">
<g clip-path="url(#clip0_208_6)">
<path fill-rule="evenodd" clip-rule="evenodd" d="M19.62 0H69.82L52.32 33.88L82.1 34.4L9.53 122.88L23.49 64.67H0L19.62 0ZM13.92 53.48L28.57 11.78H51.32L39.49 43.53L57.34 43.83L27.31 88.79L36.26 53.48H13.92Z" fill="white"/>
</g>
<path d="M116.211 84.0001H108.09C107.879 84.0001 107.773 83.8829 107.773 83.6485V42.586H98.4219C98.1875 42.586 98.0703 42.4688 98.0703 42.2345L98.1406 34.1837C98.1406 33.9962 98.2344 33.9024 98.4219 33.9024H125.773C126.031 33.9024 126.16 33.9962 126.16 34.1837V42.2345C126.16 42.4688 126.066 42.586 125.879 42.586H116.422L116.492 83.6485C116.492 83.8829 116.398 84.0001 116.211 84.0001Z" fill="white"/>
<path d="M138.113 84.0001H129.957C129.77 84.0001 129.676 83.8829 129.676 83.6485L129.746 34.1837C129.746 33.9962 129.863 33.9024 130.098 33.9024H138.113C138.348 33.9024 138.465 33.9962 138.465 34.1837L138.395 53.7657H149.188V34.1837C149.188 33.9962 149.281 33.9024 149.469 33.9024H157.484C157.719 33.9024 157.836 33.9962 157.836 34.1837L157.977 83.6485C157.977 83.8829 157.859 84.0001 157.625 84.0001H149.539C149.305 84.0001 149.188 83.8829 149.188 83.6485V62.4845H138.395V83.6485C138.395 83.8829 138.301 84.0001 138.113 84.0001Z" fill="white"/>
<path d="M177.102 84.7032C174.57 84.7032 172.227 84.047 170.07 82.7345C167.914 81.422 166.191 79.6641 164.902 77.461C163.637 75.2345 163.004 72.8087 163.004 70.1837L163.145 34.1837C163.145 33.9962 163.238 33.9024 163.426 33.9024H171.512C171.699 33.9024 171.793 33.9962 171.793 34.1837V70.1837C171.793 71.8009 172.309 73.1837 173.34 74.3321C174.371 75.4571 175.625 76.0196 177.102 76.0196C178.648 76.0196 179.938 75.4571 180.969 74.3321C182 73.1837 182.516 71.8009 182.516 70.1837V34.1837C182.516 33.9962 182.609 33.9024 182.797 33.9024H190.883C191.07 33.9024 191.164 33.9962 191.164 34.1837L191.305 70.1837C191.305 72.8321 190.672 75.2696 189.406 77.4962C188.117 79.6993 186.406 81.4571 184.273 82.7696C182.141 84.0587 179.75 84.7032 177.102 84.7032Z" fill="white"/>
<path d="M204.805 84.0001H197.598C197.223 84.0001 197.035 83.836 197.035 83.5079L196.965 34.4649C196.965 34.0899 197.152 33.9024 197.527 33.9024H204.031L216.195 62.2735L215.844 34.4649C215.844 34.0899 216.055 33.9024 216.477 33.9024H223.613C223.895 33.9024 224.035 34.0899 224.035 34.4649L224.105 83.5782C224.105 83.8595 223.988 84.0001 223.754 84.0001H217.426L204.945 57.4923L205.473 83.4376C205.473 83.8126 205.25 84.0001 204.805 84.0001Z" fill="white"/>
<path d="M243.617 83.9298L230.715 84.0001C230.48 84.0001 230.363 83.8829 230.363 83.6485L230.504 34.1837C230.504 33.9962 230.598 33.9024 230.785 33.9024L244.25 33.8321C246.922 33.7618 249.336 34.3712 251.492 35.6602C253.672 36.9493 255.406 38.6954 256.695 40.8985C258.008 43.0782 258.664 45.4923 258.664 48.1407V68.8126C258.664 71.5782 257.996 74.1095 256.66 76.4063C255.301 78.6798 253.496 80.4962 251.246 81.8556C248.996 83.1915 246.453 83.8829 243.617 83.9298ZM244.25 42.4454L239.223 42.5157L239.152 75.1407H243.617C245.398 75.1407 246.898 74.5196 248.117 73.2774C249.336 72.0352 249.945 70.547 249.945 68.8126V48.0704C249.945 46.547 249.383 45.2227 248.258 44.0977C247.133 42.9493 245.797 42.3985 244.25 42.4454Z" fill="white"/>
<path d="M287.879 84.0001H264.605C264.418 84.0001 264.324 83.8829 264.324 83.6485L264.395 34.1837C264.395 33.9962 264.488 33.9024 264.676 33.9024H287.809C287.996 33.9024 288.09 34.0196 288.09 34.254V42.3048C288.09 42.4923 287.996 42.586 287.809 42.586H273.043V53.836H287.809C287.996 53.836 288.09 53.9298 288.09 54.1173L288.16 62.2735C288.16 62.461 288.066 62.5548 287.879 62.5548H273.043V75.1407H287.879C288.066 75.1407 288.16 75.2579 288.16 75.4923V83.7188C288.16 83.9063 288.066 84.0001 287.879 84.0001Z" fill="white"/>
<path d="M302.996 84.0001H294.84C294.652 84.0001 294.559 83.8829 294.559 83.6485L294.699 34.1837C294.699 33.9962 294.793 33.9024 294.98 33.9024H309.535C312.137 33.9024 314.527 34.5352 316.707 35.8009C318.887 37.0665 320.621 38.7657 321.91 40.8985C323.223 43.0313 323.879 45.4454 323.879 48.1407C323.879 49.8985 323.609 51.4923 323.07 52.922C322.531 54.3516 321.898 55.5587 321.172 56.5431C320.469 57.5274 319.824 58.254 319.238 58.7227C321.84 61.6056 323.141 64.9923 323.141 68.8829L323.211 83.6485C323.211 83.8829 323.094 84.0001 322.859 84.0001H314.703C314.516 84.0001 314.422 83.9298 314.422 83.7891V68.8829C314.422 67.1485 313.812 65.6485 312.594 64.3829C311.375 63.1173 309.875 62.4845 308.094 62.4845H303.348L303.277 83.6485C303.277 83.8829 303.184 84.0001 302.996 84.0001ZM309.535 42.5157H303.348V53.836H309.535C311.012 53.836 312.324 53.2852 313.473 52.1837C314.645 51.0821 315.23 49.7345 315.23 48.1407C315.23 46.6173 314.668 45.3048 313.543 44.2032C312.418 43.0782 311.082 42.5157 309.535 42.5157Z" fill="white"/>
<defs>
<clipPath id="clip0_208_6">
<rect width="82.1" height="122.88" fill="white"/>
</clipPath>
</defs>
</svg>
