<svg xmlns="http://www.w3.org/2000/svg" width="32" height="32"><g fill="none"><path fill="#EE6344" d="M23 17a2 2 0 1 0-4 0c0 1.342.667 2.012 2 2.012s2-.67 2-2.012zm-11 0a1 1 0 0 0-2 0c0 .667.333 1 1 1s1-.333 1-1z"/><path stroke="#484848" stroke-linecap="round" stroke-linejoin="round" stroke-width="2" d="M3 18h26v1a9 9 0 0 1-9 9h-8a9 9 0 0 1-9-9v-1zm4 0c0-1 .167-1.833.5-2.5.5-1 0-3 1.5-3.5s1.347.497 4 0 2.653-2.5 4.5-2 1.265 2.059 2.5 2.5c1.235.441 2.231-1.304 4-.5 1.769.804.318 2.929 1 4 .454.714.454 1.38 0 2"/><circle cx="15" cy="12" r="3" fill="#EE6344"/><path stroke="#484848" stroke-linecap="round" stroke-linejoin="round" stroke-width="2" d="M7 18L2 8m23 10l5-10"/></g></svg>