<?xml version="1.0" standalone="no"?>
<!DOCTYPE svg PUBLIC "-//W3C//DTD SVG 20010904//EN"
 "http://www.w3.org/TR/2001/REC-SVG-20010904/DTD/svg10.dtd">
<svg version="1.0" xmlns="http://www.w3.org/2000/svg"
 width="133.000000pt" height="133.000000pt" viewBox="0 0 133.000000 133.000000"
 preserveAspectRatio="xMidYMid meet">

<g transform="translate(0.000000,133.000000) scale(0.100000,-0.100000)"
fill="#000000" stroke="none">
<path d="M28 699 c-22 -12 -23 -52 -3 -138 32 -132 122 -253 239 -320 56 -32
56 -33 56 -81 0 -34 4 -50 16 -54 20 -8 628 -8 648 0 12 4 16 20 16 54 0 48 0
49 56 81 131 74 223 210 246 363 11 73 11 79 -7 92 -16 12 -126 14 -634 14
-400 -1 -622 -4 -633 -11z m1202 -86 c0 -10 -3 -28 -6 -40 l-6 -23 -558 0
-558 0 -6 23 c-16 62 -64 57 564 57 536 0 570 -1 570 -17z m-57 -164 c-29 -50
-115 -125 -181 -158 l-62 -31 0 -45 0 -45 -270 0 -270 0 0 45 0 45 -62 31
c-66 33 -152 108 -181 158 l-18 31 531 0 531 0 -18 -31z"/>
</g>
</svg>
