<?xml version="1.0" encoding="UTF-8" standalone="no" ?>
<!DOCTYPE svg PUBLIC "-//W3C//DTD SVG 1.1//EN" "http://www.w3.org/Graphics/SVG/1.1/DTD/svg11.dtd">
<svg xmlns="http://www.w3.org/2000/svg" xmlns:xlink="http://www.w3.org/1999/xlink" version="1.1" width="87.8120623799" height="64.8346650458" viewBox="152.51701953475 3.7159322096000054 87.8120623799 64.8346650458" xml:space="preserve">
<desc>Created with Fabric.js 5.3.0</desc>
<defs>
</defs>
<g transform="matrix(1 0 0 1 196.4230507247 36.1332647325)" id="_MgFIiLBC7yU0thHKh2T9"  >
<g style=""   >
		<g transform="matrix(0.13333333 0 0 -0.13333333 -1.7110818407 18.5173328704)" id="klCrfOKfhw2q4D-hAjJhk"  >
<path style="stroke: none; stroke-width: 1; stroke-dasharray: none; stroke-linecap: butt; stroke-dashoffset: 0; stroke-linejoin: miter; stroke-miterlimit: 4; fill: rgb(184,181,170); fill-rule: nonzero; opacity: 1;"  transform=" translate(-1336.0530905428, -3377.27)" d="M 1454.32 3273.52 C 1450.73 3273.52 1447.24 3274.12 1444.1599999999999 3275.37 C 1440.83 3276.73 1438.4799999999998 3278.72 1436.9999999999998 3281.02 C 1434.0599999999997 3276.46 1428.5699999999997 3273.56 1421.8299999999997 3273.56 C 1421.0499999999997 3273.56 1420.2599999999998 3273.6 1419.4499999999996 3273.68 C 1408.4099999999996 3274.75 1398.7099999999996 3282.8999999999996 1396.5099999999995 3292.3799999999997 C 1393.8999999999996 3291.1699999999996 1390.8199999999995 3290.1099999999997 1387.2599999999995 3289.3099999999995 C 1382.5999999999995 3288.2699999999995 1377.7399999999996 3287.7799999999993 1373.0699999999995 3287.7799999999993 C 1362.7299999999996 3287.7799999999993 1353.3199999999995 3290.1999999999994 1349.1299999999994 3294.4699999999993 C 1348.2299999999993 3295.3899999999994 1347.7099999999994 3296.3499999999995 1347.3699999999994 3297.3199999999993 C 1342.5799999999995 3294.539999999999 1336.7199999999993 3292.979999999999 1331.0799999999995 3292.979999999999 C 1327.7299999999996 3292.979999999999 1324.4499999999994 3293.539999999999 1321.5299999999995 3294.699999999999 C 1317.3699999999994 3296.339999999999 1314.6999999999996 3298.979999999999 1313.4299999999996 3302.019999999999 C 1312.0799999999997 3300.8199999999993 1310.2099999999996 3299.949999999999 1307.8199999999997 3299.539999999999 C 1306.7799999999997 3299.359999999999 1305.6799999999996 3299.269999999999 1304.5499999999997 3299.269999999999 C 1295.2299999999998 3299.269999999999 1283.1699999999996 3305.0899999999992 1276.0799999999997 3313.369999999999 L 1274.1099999999997 3316.039999999999 C 1271.5199999999998 3313.449999999999 1267.6599999999996 3311.8399999999992 1262.7499999999998 3311.8399999999992 C 1262.6999999999998 3311.8399999999992 1262.6499999999999 3311.8399999999992 1262.5899999999997 3311.8399999999992 C 1251.0099999999998 3311.9099999999994 1238.4599999999996 3320.499999999999 1234.5799999999997 3330.999999999999 L 1233.9899999999998 3333.269999999999 C 1232.6699999999998 3333.179999999999 1231.2899999999997 3333.129999999999 1229.8499999999997 3333.129999999999 C 1225.6699999999996 3333.129999999999 1221.0399999999997 3333.519999999999 1216.2099999999996 3334.3399999999992 C 1201.7299999999996 3336.7999999999993 1190.1499999999996 3342.359999999999 1187.1799999999996 3347.7199999999993 C 1183.1099999999997 3346.8499999999995 1178.9199999999996 3346.419999999999 1174.8999999999996 3346.419999999999 C 1166.9399999999996 3346.419999999999 1159.6599999999996 3348.109999999999 1155.3999999999996 3351.409999999999 C 1150.1499999999996 3355.499999999999 1150.9899999999996 3360.8999999999987 1156.4699999999996 3365.459999999999 C 1155.8599999999997 3365.449999999999 1155.2399999999996 3365.439999999999 1154.6099999999997 3365.439999999999 C 1152.6399999999996 3365.439999999999 1150.5899999999997 3365.499999999999 1148.4599999999996 3365.669999999999 C 1130.7599999999995 3367.0499999999993 1115.5999999999997 3373.479999999999 1114.5899999999997 3380.019999999999 C 1114.1899999999996 3382.689999999999 1116.2999999999997 3384.929999999999 1120.0399999999997 3386.5899999999992 L 1119.5899999999997 3386.6399999999994 C 1101.1399999999996 3389.0399999999995 1086.2299999999998 3396.3999999999996 1086.2899999999997 3403.0699999999993 C 1086.3099999999997 3405.1999999999994 1087.9799999999998 3406.9499999999994 1090.6699999999998 3408.3399999999992 C 1089.56 3408.5999999999995 1088.4699999999998 3408.8199999999993 1087.34 3409.129999999999 C 1069.81 3413.9499999999994 1058.02 3422.6999999999994 1061.01 3428.6599999999994 C 1062.31 3431.2499999999995 1066.27 3432.8199999999993 1071.67 3433.4599999999996 C 1059.3200000000002 3436.7899999999995 1050.53 3442.2499999999995 1050.63 3447.2999999999997 C 1050.72 3451.0199999999995 1055.67 3453.6499999999996 1063.21 3454.81 C 1058.3700000000001 3459.32 1056.66 3465.7999999999997 1059.56 3472.0099999999998 C 1061.34 3475.85 1064.59 3478.9199999999996 1068.58 3481.02 C 1069.9299999999998 3480.68 1071.33 3480.4 1072.77 3480.18 C 1067.57 3477.2599999999998 1063.95 3473.1099999999997 1063.15 3468.02 C 1061.2800000000002 3456.3 1074.46 3444.46 1092.5700000000002 3441.57 C 1093.7300000000002 3441.38 1094.8500000000001 3441.36 1095.9900000000002 3441.25 C 1093.5900000000001 3437.86 1092.2700000000002 3434.16 1092.6300000000003 3430.32 C 1093.6700000000003 3419.38 1107.0100000000004 3411.5 1123.4100000000003 3411.5 C 1125.0300000000002 3411.5 1126.6800000000003 3411.58 1128.3500000000004 3411.74 L 1128.8000000000004 3411.81 C 1125.4200000000003 3407.59 1123.7500000000005 3402.85 1124.6300000000003 3398.18 C 1126.4100000000003 3388.77 1137.6200000000003 3382.66 1151.3800000000003 3382.66 C 1154.3300000000004 3382.66 1157.4000000000003 3382.95 1160.5300000000004 3383.54 C 1163.3300000000004 3384.07 1165.9400000000005 3384.88 1168.4500000000005 3385.81 C 1163.8800000000006 3375.7999999999997 1164.0200000000004 3365.7799999999997 1169.9300000000005 3360.18 C 1172.8600000000006 3357.3999999999996 1176.8000000000004 3356.08 1181.2100000000005 3356.08 C 1187.6300000000006 3356.08 1195.0500000000004 3358.87 1201.8500000000006 3364.02 C 1205.6300000000006 3355.59 1217.4800000000007 3349.52 1231.6400000000006 3349.52 C 1232.0300000000007 3349.52 1232.4200000000005 3349.52 1232.8200000000006 3349.53 C 1239.4000000000005 3349.69 1245.4800000000007 3351.13 1250.5000000000007 3353.46 C 1250.8100000000006 3352.18 1251.0600000000006 3350.89 1251.4800000000007 3349.59 C 1256.4700000000007 3334.21 1267.6600000000008 3323.6400000000003 1278.0100000000007 3323.6400000000003 C 1279.5400000000006 3323.6400000000003 1281.0400000000006 3323.88 1282.5000000000007 3324.3500000000004 C 1287.4100000000008 3325.9400000000005 1290.9600000000007 3330.1400000000003 1293.0800000000006 3335.7000000000003 C 1293.8200000000006 3334.3100000000004 1294.5800000000006 3332.92 1295.4900000000007 3331.5600000000004 C 1302.5500000000006 3321.0800000000004 1312.7000000000007 3314.8200000000006 1321.1900000000007 3314.8200000000006 C 1324.1300000000008 3314.8200000000006 1326.8700000000008 3315.5700000000006 1329.2100000000007 3317.140000000001 C 1331.4800000000007 3318.6800000000007 1333.1600000000008 3320.850000000001 1334.2700000000007 3323.4500000000007 C 1336.0600000000006 3318.4100000000008 1339.1700000000008 3314.540000000001 1343.5600000000006 3312.9500000000007 C 1345.0400000000006 3312.4100000000008 1346.5800000000006 3312.1500000000005 1348.1400000000006 3312.1500000000005 C 1355.2900000000006 3312.1500000000005 1362.9900000000005 3317.5700000000006 1368.5100000000004 3326.2100000000005 C 1369.0100000000004 3324.5700000000006 1369.7000000000005 3323.0200000000004 1370.7500000000005 3321.6500000000005 C 1373.8800000000006 3317.6300000000006 1378.9700000000005 3315.6600000000008 1384.8900000000006 3315.6600000000008 C 1392.4200000000005 3315.6600000000008 1401.2800000000007 3318.830000000001 1409.1800000000005 3324.9700000000007 C 1412.5400000000004 3327.5700000000006 1415.3800000000006 3330.500000000001 1417.7200000000005 3333.540000000001 C 1421.3400000000004 3318.290000000001 1431.1800000000005 3307.290000000001 1441.4700000000005 3307.290000000001 C 1442.2000000000005 3307.290000000001 1442.9300000000005 3307.340000000001 1443.6700000000005 3307.460000000001 C 1451.5000000000005 3308.670000000001 1457.3000000000006 3316.220000000001 1459.6100000000006 3326.4500000000007 C 1461.4700000000005 3322.8000000000006 1464.1400000000006 3319.980000000001 1467.6700000000005 3318.640000000001 C 1469.2500000000005 3318.040000000001 1470.9100000000005 3317.750000000001 1472.6000000000006 3317.750000000001 C 1482.2100000000005 3317.750000000001 1492.9000000000005 3327.090000000001 1498.2100000000005 3341.050000000001 L 1498.2300000000005 3341.110000000001 C 1500.1300000000006 3338.110000000001 1502.6000000000004 3335.770000000001 1505.7500000000005 3334.570000000001 C 1507.4000000000005 3333.950000000001 1509.1200000000003 3333.6400000000012 1510.8800000000006 3333.6400000000012 C 1520.8800000000006 3333.6400000000012 1532.0000000000005 3343.380000000001 1537.5200000000007 3357.910000000001 L 1537.5900000000006 3358.1200000000013 C 1539.2100000000005 3355.8700000000013 1541.2600000000007 3354.1000000000013 1543.7500000000007 3353.0600000000013 C 1545.4700000000007 3352.3500000000013 1547.2800000000007 3352.010000000001 1549.1400000000008 3352.010000000001 C 1558.7100000000007 3352.010000000001 1569.4900000000007 3361.0400000000013 1575.1700000000008 3374.730000000001 C 1577.9500000000007 3381.4500000000007 1578.9800000000007 3388.190000000001 1578.6000000000008 3394.170000000001 C 1582.8500000000008 3392.790000000001 1587.0600000000009 3392.120000000001 1590.9400000000007 3392.120000000001 C 1597.8300000000008 3392.120000000001 1603.7300000000007 3394.230000000001 1607.1800000000007 3398.3000000000006 C 1608.7300000000007 3397.580000000001 1610.0600000000009 3396.7300000000005 1611.1200000000008 3395.7700000000004 C 1616.0900000000008 3391.26 1613.510000000001 3385.5800000000004 1605.6600000000008 3381.4900000000002 C 1614.8700000000008 3377.92 1619.5700000000008 3369.2900000000004 1616.2000000000007 3361.0000000000005 C 1614.8700000000008 3357.7400000000002 1612.4600000000007 3355.0200000000004 1609.4300000000007 3352.9600000000005 C 1612.8800000000008 3350.4700000000007 1615.9400000000007 3347.5000000000005 1618.1300000000008 3344.1800000000003 C 1622.8800000000008 3337.01 1622.4100000000008 3330.4100000000003 1617.760000000001 3326.9800000000005 C 1619.0900000000008 3325.9600000000005 1620.210000000001 3324.8800000000006 1620.8000000000009 3323.7200000000003 C 1624.200000000001 3317.0600000000004 1613.000000000001 3311.0400000000004 1595.7800000000009 3310.3 C 1594.6200000000008 3310.25 1593.470000000001 3310.23 1592.3200000000008 3310.23 C 1589.3300000000008 3310.23 1586.3700000000008 3310.39 1583.5300000000009 3310.69 L 1583.170000000001 3310.43 C 1592.250000000001 3304.39 1595.930000000001 3297.75 1591.240000000001 3294.16 C 1589.130000000001 3292.54 1585.630000000001 3291.77 1581.3500000000008 3291.77 C 1575.4500000000007 3291.77 1568.0600000000009 3293.23 1560.7200000000007 3295.96 C 1560.5100000000007 3292.68 1558.8300000000006 3289.23 1555.4300000000007 3286.13 C 1549.8200000000008 3281 1541.2300000000007 3278.12 1533.1600000000008 3278.12 C 1529.3200000000008 3278.12 1525.6100000000008 3278.77 1522.3900000000008 3280.14 C 1520.0400000000009 3281.15 1518.2100000000007 3282.47 1516.8300000000008 3283.98 L 1516.740000000001 3283.88 C 1511.140000000001 3278.31 1502.190000000001 3275.1400000000003 1493.750000000001 3275.1400000000003 C 1490.020000000001 3275.1400000000003 1486.390000000001 3275.7500000000005 1483.180000000001 3277.0600000000004 C 1480.210000000001 3278.2700000000004 1478.000000000001 3279.9700000000003 1476.440000000001 3281.9300000000003 L 1476.420000000001 3281.9 C 1471.0300000000009 3276.56 1462.430000000001 3273.52 1454.320000000001 3273.52" stroke-linecap="round" />
</g>
		<g transform="matrix(0.13333333 0 0 -0.13333333 -0.9637028106 0.2842268127)" id="GQAk-Sl29INfucx07tT_E"  >
<path style="stroke: none; stroke-width: 1; stroke-dasharray: none; stroke-linecap: butt; stroke-dashoffset: 0; stroke-linejoin: miter; stroke-miterlimit: 4; fill: rgb(236,226,172); fill-rule: nonzero; opacity: 1;"  transform=" translate(-1341.6584334093, -3514.0182988517)" d="M 1632.69 3463.96 C 1631.89 3465.85 1630.6000000000001 3467.42 1629.1100000000001 3468.82 C 1633.0600000000002 3476.53 1632.3300000000002 3488.55 1626.3700000000001 3499.8900000000003 C 1623.6100000000001 3505.1400000000003 1620.0600000000002 3509.4700000000003 1616.23 3512.82 C 1618.83 3517.52 1620.72 3523.2200000000003 1621.44 3529.52 C 1623.25 3545.54 1617.0800000000002 3559.53 1607.3700000000001 3562.91 C 1614.3500000000001 3572.8599999999997 1615.8700000000001 3583.93 1610.17 3590.42 C 1603.51 3597.9700000000003 1589.41 3596.59 1577.24 3587.81 L 1575.96 3589.2999999999997 C 1576.47 3590.7 1577 3592.08 1577.4 3593.56 C 1582.17 3611.39 1576.68 3628.36 1565.15 3631.44 C 1562.88 3632.05 1560.5500000000002 3631.92 1558.23 3631.44 C 1554.55 3640.05 1543.68 3647.53 1529.91 3649.92 C 1523.2 3651.08 1516.76 3650.86 1511.15 3649.55 C 1510.74 3651.4 1510.25 3653.27 1509.6000000000001 3655.1400000000003 C 1503.7800000000002 3671.8 1490.3300000000002 3682.2500000000005 1479.5600000000002 3678.4900000000002 C 1478.5700000000002 3678.1400000000003 1477.7100000000003 3677.59 1476.8400000000001 3677.0400000000004 C 1470.68 3684.0800000000004 1457.0800000000002 3686.0500000000006 1443.42 3681.1100000000006 C 1439.22 3679.5900000000006 1435.47 3677.5500000000006 1432.24 3675.2100000000005 L 1432.25 3677.3700000000003 C 1431.14 3695.9800000000005 1420.48 3710.4900000000002 1408.43 3709.7700000000004 C 1405.48 3709.6000000000004 1402.72 3708.5000000000005 1400.25 3706.7000000000003 C 1393.25 3714.01 1378.46 3715.4800000000005 1363.93 3709.44 C 1357.8200000000002 3706.9 1352.65 3703.37 1348.66 3699.39 C 1341.5500000000002 3714.94 1327.92 3724 1317.6100000000001 3719.66 C 1310.3200000000002 3716.5899999999997 1306.72 3707.6099999999997 1307.3500000000001 3697 C 1306.96 3697.91 1306.64 3698.84 1306.18 3699.75 C 1298.3100000000002 3715.3 1283.78 3723.79 1273.72 3718.7 C 1270.84 3717.25 1268.72 3714.7599999999998 1267.23 3711.71 C 1259.6100000000001 3715.61 1247.79 3715 1236.55 3709.27 C 1230.49 3706.17 1225.57 3702.05 1222.06 3697.59 C 1214.1299999999999 3711.1000000000004 1201.29 3718.3700000000003 1191.6699999999998 3714.02 C 1182.3 3709.78 1179.1299999999999 3695.95 1183.5099999999998 3681.46 L 1183.1299999999997 3681.32 C 1172.3899999999996 3695.2400000000002 1156.7299999999996 3701.2400000000002 1147.2699999999998 3694.59 C 1139.8299999999997 3689.3700000000003 1138.3799999999997 3677.88 1142.6799999999998 3666 C 1130.3899999999999 3678.45 1114.1999999999998 3682.48 1105.6499999999999 3674.79 C 1097.29 3667.2599999999998 1099.34 3651.33 1109.78 3637.98 C 1108.49 3638.29 1107.24 3638.63 1105.8899999999999 3638.84 C 1088.1299999999999 3641.5 1072.34 3634.36 1070.61 3622.8700000000003 C 1069.9299999999998 3618.36 1071.59 3613.86 1074.85 3609.8800000000006 C 1069.5 3610.8300000000004 1064.51 3610.0300000000007 1060.81 3607.0000000000005 C 1051.8799999999999 3599.7100000000005 1053.6499999999999 3582.8200000000006 1064.58 3568.9100000000003 C 1059.34 3563.55 1055.28 3555.3 1053.8999999999999 3545.55 C 1052.1699999999998 3533.4100000000003 1055.0199999999998 3522.32 1060.59 3515.8 C 1053.3899999999999 3511.23 1048.99 3504.8700000000003 1049.58 3498.1400000000003 C 1050.3899999999999 3489.01 1060.02 3482.09 1072.77 3480.1800000000003 C 1067.57 3477.26 1063.95 3473.11 1063.15 3468.0200000000004 C 1061.2800000000002 3456.3000000000006 1074.46 3444.4600000000005 1092.5700000000002 3441.5700000000006 C 1093.7300000000002 3441.3800000000006 1094.8500000000001 3441.3600000000006 1095.9900000000002 3441.2500000000005 C 1093.5900000000001 3437.8600000000006 1092.2700000000002 3434.1600000000003 1092.6300000000003 3430.3200000000006 C 1093.7700000000004 3418.3000000000006 1109.7600000000004 3409.9800000000005 1128.3500000000004 3411.7400000000007 L 1128.8000000000004 3411.810000000001 C 1125.4200000000003 3407.590000000001 1123.7500000000005 3402.850000000001 1124.6300000000003 3398.1800000000007 C 1126.7900000000004 3386.750000000001 1142.8600000000004 3380.2000000000007 1160.5300000000004 3383.540000000001 C 1163.3300000000004 3384.070000000001 1165.9400000000005 3384.880000000001 1168.4500000000005 3385.810000000001 C 1163.8800000000006 3375.8000000000006 1164.0200000000004 3365.7800000000007 1169.9300000000005 3360.1800000000007 C 1177.1300000000006 3353.3600000000006 1190.3800000000006 3355.330000000001 1201.8500000000006 3364.020000000001 C 1205.7400000000007 3355.360000000001 1218.1400000000006 3349.190000000001 1232.8200000000006 3349.530000000001 C 1239.4000000000005 3349.690000000001 1245.4800000000007 3351.130000000001 1250.5000000000007 3353.460000000001 C 1250.8100000000006 3352.1800000000007 1251.0600000000006 3350.890000000001 1251.4800000000007 3349.590000000001 C 1257.2000000000007 3331.950000000001 1271.0800000000006 3320.6400000000012 1282.5000000000007 3324.3500000000013 C 1287.4100000000008 3325.9400000000014 1290.9600000000007 3330.1400000000012 1293.0800000000006 3335.700000000001 C 1293.8200000000006 3334.3100000000013 1294.5800000000006 3332.920000000001 1295.4900000000007 3331.5600000000013 C 1304.9900000000007 3317.4600000000014 1320.0800000000006 3311.0000000000014 1329.2100000000007 3317.1400000000012 C 1331.4800000000007 3318.680000000001 1333.1600000000008 3320.8500000000013 1334.2700000000007 3323.450000000001 C 1336.0600000000006 3318.410000000001 1339.1700000000008 3314.5400000000013 1343.5600000000006 3312.950000000001 C 1351.8300000000006 3309.940000000001 1361.7900000000006 3315.690000000001 1368.5100000000007 3326.2100000000014 C 1369.0100000000007 3324.5700000000015 1369.7000000000007 3323.0200000000013 1370.7500000000007 3321.6500000000015 C 1377.8600000000006 3312.5100000000016 1395.0600000000006 3314.0000000000014 1409.1800000000007 3324.9700000000016 C 1412.5400000000006 3327.5700000000015 1415.3800000000008 3330.500000000002 1417.7200000000007 3333.540000000002 C 1421.6000000000008 3317.2000000000016 1432.6100000000008 3305.750000000002 1443.6700000000008 3307.460000000002 C 1451.5000000000007 3308.670000000002 1457.3000000000009 3316.220000000002 1459.6100000000008 3326.4500000000016 C 1461.4700000000007 3322.8000000000015 1464.1400000000008 3319.980000000002 1467.6700000000008 3318.6400000000017 C 1478.2900000000006 3314.6100000000015 1491.9600000000007 3324.6400000000017 1498.2100000000007 3341.0500000000015 L 1498.2300000000007 3341.1100000000015 C 1500.1300000000008 3338.1100000000015 1502.6000000000006 3335.7700000000013 1505.7500000000007 3334.5700000000015 C 1516.8100000000006 3330.3800000000015 1531.0300000000007 3340.8200000000015 1537.5200000000007 3357.9100000000017 L 1537.5900000000006 3358.1200000000017 C 1539.2100000000005 3355.8700000000017 1541.2600000000007 3354.1000000000017 1543.7500000000007 3353.0600000000018 C 1554.3300000000006 3348.6800000000017 1568.3900000000008 3358.3900000000017 1575.1700000000008 3374.730000000002 C 1577.9500000000007 3381.4500000000016 1578.9800000000007 3388.190000000002 1578.6000000000008 3394.170000000002 C 1591.9000000000008 3389.8700000000017 1604.7100000000007 3392.430000000002 1608.9500000000007 3401.000000000002 C 1612.9100000000008 3409.010000000002 1608.0900000000008 3419.750000000002 1598.0700000000006 3427.630000000002 L 1598.3700000000006 3428.210000000002 C 1602.3100000000006 3428.760000000002 1606.4200000000005 3429.840000000002 1610.5000000000007 3431.540000000002 C 1627.3000000000006 3438.570000000002 1637.2300000000007 3453.0800000000017 1632.6900000000007 3463.960000000002" stroke-linecap="round" />
</g>
		<g transform="matrix(0.13333333 0 0 -0.13333333 -6.9640480506 -2.5309755825)" id="xbXaQ4V4SrWkuEo9jEsKl"  >
<path style="stroke: none; stroke-width: 1; stroke-dasharray: none; stroke-linecap: butt; stroke-dashoffset: 0; stroke-linejoin: miter; stroke-miterlimit: 4; fill: rgb(252,251,230); fill-rule: nonzero; opacity: 1;"  transform=" translate(-1296.655842984, -3535.132317343)" d="M 1513.78 3552.86 L 1513.24 3552.9700000000003 C 1513.85 3554.2300000000005 1514.48 3555.46 1514.99 3556.8 C 1521.1200000000001 3572.96 1517.63 3589.28 1507.18 3593.25 C 1501.91 3595.25 1495.89 3593.73 1490.42 3589.67 C 1495.0600000000002 3603.96 1491.97 3617.84 1482.72 3621.67 C 1478.47 3623.4300000000003 1473.64 3622.67 1468.97 3620.15 C 1466.46 3627.01 1459.95 3633.9300000000003 1450.88 3638.4 C 1446.23 3640.71 1441.5100000000002 3641.98 1437.0400000000002 3642.4900000000002 C 1437.6700000000003 3645.48 1437.5300000000002 3648.4100000000003 1436.41 3651.11 C 1432.1000000000001 3661.4 1415.75 3664.34 1399.8500000000001 3657.7000000000003 C 1396.4 3656.2500000000005 1393.3100000000002 3654.42 1390.5400000000002 3652.4100000000003 C 1389.7300000000002 3655.3300000000004 1388.65 3658.2900000000004 1387.1200000000001 3661.2000000000003 C 1379.42 3675.82 1365.5200000000002 3683.63 1356.0600000000002 3678.65 L 1355.63 3678.34 L 1355.3000000000002 3679.7000000000003 C 1353.8000000000002 3683.3100000000004 1350.7700000000002 3685.9700000000003 1346.8700000000001 3687.7200000000003 C 1344.0300000000002 3692.01 1340.23 3694.8900000000003 1335.7700000000002 3695.4100000000003 C 1330.1100000000001 3696.05 1324.64 3692.84 1320.4000000000003 3687.3 L 1318.0600000000004 3686.51 C 1312.2800000000004 3684.11 1307.4000000000003 3680.7700000000004 1303.6300000000003 3677.0200000000004 C 1296.9100000000003 3691.7100000000005 1284.0100000000004 3700.2800000000007 1274.2700000000004 3696.1800000000003 C 1267.3700000000003 3693.2700000000004 1263.9800000000005 3684.78 1264.5700000000004 3674.7500000000005 L 1263.4600000000005 3677.3500000000004 C 1256.0300000000004 3692.05 1242.2800000000004 3700.07 1232.7600000000004 3695.2700000000004 C 1229.4700000000005 3693.6100000000006 1227.1800000000005 3690.5500000000006 1225.8200000000004 3686.7500000000005 C 1218.6100000000004 3689.7500000000005 1208.1400000000003 3689.0000000000005 1198.1300000000003 3683.8900000000003 C 1190.9000000000003 3680.1900000000005 1185.3200000000004 3674.9700000000003 1182.0900000000004 3669.4900000000002 C 1174.7400000000005 3678.19 1165.1600000000003 3682.26 1157.6500000000003 3678.88 C 1148.5600000000004 3674.76 1145.6900000000003 3661.13 1150.3200000000004 3647.05 C 1140.1500000000003 3660.84 1124.8500000000004 3666.8700000000003 1115.7100000000005 3660.44 C 1106.6300000000006 3654.07 1107.0500000000004 3637.8 1116.4000000000005 3623.61 C 1107.4700000000005 3628.17 1098.3700000000006 3628.52 1092.7600000000004 3623.46 C 1084.3000000000004 3615.85 1086.9800000000005 3599.09 1098.7500000000005 3586.01 L 1100.6500000000005 3584.1600000000003 C 1084.6900000000005 3585.8900000000003 1070.8300000000006 3579.3300000000004 1069.2700000000004 3568.9 C 1068.0100000000004 3560.59 1074.9500000000005 3552.32 1085.7900000000004 3547.7400000000002 C 1078.8100000000004 3540.1400000000003 1080.8900000000003 3524.9 1091.1300000000003 3512.38 C 1095.1300000000003 3507.48 1099.8000000000004 3503.7200000000003 1104.5400000000004 3501.25 C 1103.7400000000005 3498.78 1103.0600000000004 3496.2 1102.6700000000005 3493.45 C 1100.2500000000005 3476.41 1107.2300000000005 3461.3399999999997 1118.2400000000005 3459.77 L 1120.3400000000004 3459.79 C 1121.5900000000004 3449.29 1135.1800000000003 3441.93 1151.3800000000003 3442.7799999999997 C 1150.7400000000002 3432.14 1162.7400000000002 3421.7 1179.2000000000003 3419.0699999999997 C 1182.7400000000002 3418.5099999999998 1186.1600000000003 3418.4399999999996 1189.4400000000003 3418.64 C 1193.4800000000002 3409.72 1206.8000000000002 3404.02 1222.0000000000002 3405.46 C 1223.9700000000003 3405.64 1225.8800000000003 3405.98 1227.7400000000002 3406.38 C 1230.4200000000003 3396.12 1245.1500000000003 3390.3 1261.3900000000003 3393.37 C 1264.7000000000003 3394 1267.7400000000002 3395.02 1270.6100000000004 3396.22 C 1270.1500000000003 3390.72 1271.4400000000003 3385.79 1274.9100000000003 3382.5099999999998 C 1282.9600000000003 3374.8799999999997 1299.0600000000004 3378.7799999999997 1310.8500000000004 3391.22 L 1311.9600000000003 3392.5699999999997 C 1317.5500000000002 3387.7799999999997 1326.4900000000002 3384.7499999999995 1336.5800000000002 3384.99 C 1345.43 3385.2 1353.2600000000002 3387.8999999999996 1358.67 3391.97 C 1364.93 3378.6099999999997 1376.25 3370.64 1385.77 3373.72 C 1395.3 3376.81 1399.79 3389.97 1396.98 3404.5 L 1398.29 3402.25 C 1407.26 3388.92 1421.54 3382.82 1430.17 3388.63 C 1434.64 3391.63 1436.66 3397.26 1436.39 3403.82 C 1437.5600000000002 3402.81 1438.8400000000001 3401.9500000000003 1440.3100000000002 3401.42 C 1450.16 3397.84 1462.63 3407.27 1468.17 3422.5 C 1468.9 3424.51 1469.46 3426.52 1469.8700000000001 3428.51 C 1476.8200000000002 3428.71 1484.8300000000002 3431.59 1492.0500000000002 3437.2000000000003 C 1499.0600000000002 3442.6400000000003 1503.8000000000002 3449.4700000000003 1505.8200000000002 3455.9900000000002 C 1516.5000000000002 3458.5000000000005 1523.0000000000002 3473.55 1520.38 3490.48 C 1519.45 3496.51 1517.44 3501.9 1514.8000000000002 3506.4 C 1517.3600000000001 3509.65 1519.6100000000001 3513.4700000000003 1521.2800000000002 3517.84 C 1527.1800000000003 3533.3500000000004 1523.8200000000002 3549.04 1513.7800000000002 3552.86" stroke-linecap="round" />
</g>
		<g transform="matrix(0.13333333 0 0 -0.13333333 -14.4789896931 1.1456967692)" id="ErbTeG_E_6pgAi_HPl36y"  >
<path style="stroke: none; stroke-width: 1; stroke-dasharray: none; stroke-linecap: butt; stroke-dashoffset: 0; stroke-linejoin: miter; stroke-miterlimit: 4; fill: rgb(255,255,255); fill-rule: nonzero; opacity: 1;"  transform=" translate(-1240.2937792558, -3507.5572740159)" d="M 1331.97 3482.14 C 1340.23 3511.94 1305.89 3547.48 1255.25 3561.52 C 1204.62 3575.56 1156.88 3562.78 1148.62 3532.98 C 1140.35 3503.18 1174.6999999999998 3467.63 1225.33 3453.59 C 1275.97 3439.56 1323.71 3452.33 1331.97 3482.1400000000003" stroke-linecap="round" />
</g>
		<g transform="matrix(0.13333333 0 0 -0.13333333 0 -8.9614385239)" id="SW5ABb954EFZ07bJiiX6W"  >
<path style="stroke: none; stroke-width: 1; stroke-dasharray: none; stroke-linecap: butt; stroke-dashoffset: 0; stroke-linejoin: miter; stroke-miterlimit: 4; fill: rgb(222,73,0); fill-rule: nonzero; opacity: 1;"  transform=" translate(-1348.8862046693, -3583.3607906097)" d="M 1022.44 3602.96 C 1035.1100000000001 3625.19 1099.19 3778.14 1229.27 3756.73 C 1359.35 3735.32 1473.33 3715.19 1577.19 3643.7400000000002 C 1644.92 3597.1400000000003 1728.6000000000001 3495.88 1637.99 3436.1400000000003 C 1547.37 3376.3900000000003 1507.68 3422.9100000000003 1434.22 3471.2700000000004 C 1360.76 3519.6400000000003 1128.62 3610.6800000000003 1066.67 3574.8700000000003 C 1004.71 3539.0600000000004 1022.44 3602.9600000000005 1022.44 3602.9600000000005" stroke-linecap="round" />
</g>
		<g transform="matrix(0.13333333 0 0 -0.13333333 0.0010474609 -10.0279997493)" id="fuAI5B6ze6LhVkKPbCRrj"  >
<path style="stroke: none; stroke-width: 1; stroke-dasharray: none; stroke-linecap: butt; stroke-dashoffset: 0; stroke-linejoin: miter; stroke-miterlimit: 4; fill: rgb(255,106,33); fill-rule: nonzero; opacity: 1;"  transform=" translate(-1348.8940606264, -3591.36)" d="M 1560.51 3423.94 C 1528.06 3423.94 1500.8799999999999 3442.9 1466.47 3466.91 C 1457.66 3473.06 1448.44 3479.49 1438.6200000000001 3485.96 C 1378.3100000000002 3525.67 1201.13 3599.01 1107.41 3599.01 C 1088.3000000000002 3599.01 1073.24 3595.9100000000003 1062.66 3589.8 C 1048.6100000000001 3581.6800000000003 1040.64 3579.9700000000003 1036.42 3579.9700000000003 C 1032.8000000000002 3579.9700000000003 1031.42 3581.19 1030.6200000000001 3582.2400000000002 C 1026.5100000000002 3587.6400000000003 1028.3100000000002 3601.51 1029.91 3607.9500000000003 C 1031.03 3609.9700000000003 1032.45 3612.7500000000005 1034.19 3616.17 C 1052.15 3651.44 1106.8 3758.78 1204.7 3758.78 C 1212.3 3758.78 1220.14 3758.13 1227.96 3756.84 C 1351.24 3736.55 1467.67 3717.38 1572.66 3645.15 C 1619.72 3612.77 1670.15 3556.34 1669.68 3508.96 C 1669.45 3486.02 1657.3100000000002 3466.46 1633.5800000000002 3450.82 C 1606.16 3432.73 1582.2600000000002 3423.9500000000003 1560.5100000000002 3423.94" stroke-linecap="round" />
</g>
		<g transform="matrix(0.13333333 0 0 -0.13333333 -0.9699306602 -16.4994865035)" id="7_pC_iFG5d5ZjWNoc0qd0"  >
<path style="stroke: none; stroke-width: 1; stroke-dasharray: none; stroke-linecap: butt; stroke-dashoffset: 0; stroke-linejoin: miter; stroke-miterlimit: 4; fill: rgb(255,148,71); fill-rule: nonzero; opacity: 1;"  transform=" translate(-1341.6117245356, -3639.8961518701)" d="M 1577.19 3643.74 C 1473.3300000000002 3715.1899999999996 1359.3500000000001 3735.3199999999997 1229.27 3756.7299999999996 C 1154.61 3769.0199999999995 1101.73 3723.8799999999997 1067.8 3678.9699999999993 C 1056.24 3656.9999999999995 1048.9199999999998 3640.0499999999993 1046.97 3635.2999999999993 C 1046.97 3635.2999999999993 1040.1200000000001 3587.479999999999 1081.54 3619.129999999999 C 1122.97 3650.7799999999993 1299.1799999999998 3606.649999999999 1356.77 3578.5499999999993 C 1414.35 3550.459999999999 1553.8 3489.459999999999 1613.7 3541.0799999999995 C 1631.97 3556.8199999999993 1638.1200000000001 3573.8399999999997 1636.4 3590.6599999999994 C 1618.5300000000002 3611.4599999999996 1597.18 3629.9799999999996 1577.19 3643.7399999999993" stroke-linecap="round" />
</g>
		<g transform="matrix(0.13333333 0 0 -0.13333333 -32.3574931469 -8.8946664443)" id="ZLKJF2UteghwWB3HQ8j3b"  >
<path style="stroke: none; stroke-width: 1; stroke-dasharray: none; stroke-linecap: butt; stroke-dashoffset: 0; stroke-linejoin: miter; stroke-miterlimit: 4; fill: rgb(252,146,64); fill-rule: nonzero; opacity: 1;"  transform=" translate(-1106.205, -3582.86)" d="M 1098.02 3582.71 C 1098.02 3582.7200000000003 1098.02 3582.73 1098.02 3582.73 C 1101.04 3582.92 1104.17 3583.01 1107.41 3583.01 C 1109.69 3583.01 1112.01 3582.9700000000003 1114.39 3582.88 C 1114.39 3582.86 1114.39 3582.84 1114.38 3582.82 C 1111.8300000000002 3582.92 1109.3300000000002 3582.9700000000003 1106.89 3582.9700000000003 C 1103.8300000000002 3582.9700000000003 1100.8700000000001 3582.8900000000003 1098.0200000000002 3582.71" stroke-linecap="round" />
</g>
		<g transform="matrix(0.13333333 0 0 -0.13333333 -32.260159816 -9.9626664176)" id="zqIhcPQl1iqR9Xa4q9W6L"  >
<path style="stroke: none; stroke-width: 1; stroke-dasharray: none; stroke-linecap: butt; stroke-dashoffset: 0; stroke-linejoin: miter; stroke-miterlimit: 4; fill: rgb(222,42,0); fill-rule: nonzero; opacity: 1;"  transform=" translate(-1106.935, -3590.87)" d="M 1098.02 3582.73 C 1098.61 3588.09 1099.12 3593.46 1099.6 3598.83 C 1102.1299999999999 3598.95 1104.73 3599.0099999999998 1107.4099999999999 3599.0099999999998 C 1110.1599999999999 3599.0099999999998 1112.9699999999998 3598.95 1115.85 3598.8199999999997 C 1115.4699999999998 3593.5399999999995 1114.98 3588.22 1114.3899999999999 3582.8799999999997 C 1112.0099999999998 3582.97 1109.6899999999998 3583.0099999999998 1107.4099999999999 3583.0099999999998 C 1104.1699999999998 3583.0099999999998 1101.04 3582.9199999999996 1098.0199999999998 3582.7299999999996" stroke-linecap="round" />
</g>
		<g transform="matrix(0.13333333 0 0 -0.13333333 -32.0917083582 -13.0673330067)" id="7EvFz41GBd0bJr6OmUtOh"  >
<path style="stroke: none; stroke-width: 1; stroke-dasharray: none; stroke-linecap: butt; stroke-dashoffset: 0; stroke-linejoin: miter; stroke-miterlimit: 4; fill: rgb(255,62,9); fill-rule: nonzero; opacity: 1;"  transform=" translate(-1108.1983859655, -3614.155)" d="M 1115.85 3598.82 C 1112.9699999999998 3598.9500000000003 1110.1599999999999 3599.01 1107.4099999999999 3599.01 C 1104.7299999999998 3599.01 1102.1299999999999 3598.9500000000003 1099.6 3598.8300000000004 C 1100.4599999999998 3608.3800000000006 1101.2099999999998 3617.9300000000003 1102.12 3627.4600000000005 C 1106.6 3628.3900000000003 1111.5 3629.0600000000004 1116.76 3629.4900000000007 C 1116.91 3619.520000000001 1116.6 3609.250000000001 1115.85 3598.8200000000006" stroke-linecap="round" />
</g>
		<g transform="matrix(0.13333333 0 0 -0.13333333 -24.9414933324 -23.5906660769)" id="ol6fX01WWAwdC7IRCXxiq"  >
<path style="stroke: none; stroke-width: 1; stroke-dasharray: none; stroke-linecap: butt; stroke-dashoffset: 0; stroke-linejoin: miter; stroke-miterlimit: 4; fill: rgb(255,86,20); fill-rule: nonzero; opacity: 1;"  transform=" translate(-1161.825, -3693.08)" d="M 1102.12 3627.46 C 1103.4199999999998 3641.11 1105.03 3654.7 1107.6999999999998 3668.1 L 1108.4799999999998 3669.27 L 1109.0499999999997 3671.36 C 1130.1999999999998 3701.33 1158.9199999999996 3724.4300000000003 1184.5499999999997 3750.33 C 1187.1199999999997 3752.92 1189.6799999999998 3755.54 1192.2399999999998 3758.16 C 1196.2099999999998 3758.52 1200.2499999999998 3758.7 1204.3799999999999 3758.7 C 1209.9599999999998 3758.7 1215.6799999999998 3758.37 1221.53 3757.7 C 1213.53 3749.7599999999998 1205.45 3742.5 1198.7 3736.18 C 1172.0900000000001 3711.27 1144.77 3686.3999999999996 1114.6100000000001 3665.81 L 1113.8000000000002 3665.46 C 1115.6000000000001 3654.15 1116.5600000000002 3642.06 1116.7600000000002 3629.4900000000002 C 1111.5000000000002 3629.0600000000004 1106.6000000000001 3628.3900000000003 1102.1200000000001 3627.46" stroke-linecap="round" />
</g>
		<g transform="matrix(0.13333333 0 0 -0.13333333 -38.9894929812 -8.3326664584)" id="mAP702GleLPF2fO2yEjjX"  >
<path style="stroke: none; stroke-width: 1; stroke-dasharray: none; stroke-linecap: butt; stroke-dashoffset: 0; stroke-linejoin: miter; stroke-miterlimit: 4; fill: rgb(222,42,0); fill-rule: nonzero; opacity: 1;"  transform=" translate(-1056.465, -3578.645)" d="M 1047.22 3565.88 C 1048.93 3572.06 1050.65 3578.2400000000002 1052.33 3584.4300000000003 C 1055.34 3585.7900000000004 1058.77 3587.55 1062.6599999999999 3589.8 C 1063.6399999999999 3590.36 1064.6499999999999 3590.9 1065.7099999999998 3591.4100000000003 C 1064.7499999999998 3585.07 1063.59 3578.7500000000005 1062.2699999999998 3572.4500000000003 C 1056.5399999999997 3569.4 1051.5399999999997 3567.2300000000005 1047.2199999999998 3565.88" stroke-linecap="round" />
</g>
		<g transform="matrix(0.13333333 0 0 -0.13333333 -38.4968263268 -10.8526663954)" id="w3it-y19hhM-zy6gCWH2y"  >
<path style="stroke: none; stroke-width: 1; stroke-dasharray: none; stroke-linecap: butt; stroke-dashoffset: 0; stroke-linejoin: miter; stroke-miterlimit: 4; fill: rgb(255,62,9); fill-rule: nonzero; opacity: 1;"  transform=" translate(-1060.16, -3597.545)" d="M 1052.33 3584.43 C 1054.5 3592.37 1056.6 3600.3199999999997 1058.57 3608.2999999999997 C 1058.6299999999999 3608.2999999999997 1058.6899999999998 3608.2999999999997 1058.75 3608.2999999999997 C 1061.29 3608.2999999999997 1064.33 3609.0099999999998 1067.99 3610.66 C 1067.45 3604.22 1066.68 3597.81 1065.71 3591.41 C 1064.65 3590.8999999999996 1063.64 3590.3599999999997 1062.66 3589.7999999999997 C 1058.77 3587.5499999999997 1055.3400000000001 3585.7899999999995 1052.3300000000002 3584.43" stroke-linecap="round" />
</g>
		<g transform="matrix(0.13333333 0 0 -0.13333333 -34.3214930978 -20.653332817)" id="yiS-8C2XXDSlLPcNFcaIM"  >
<path style="stroke: none; stroke-width: 1; stroke-dasharray: none; stroke-linecap: butt; stroke-dashoffset: 0; stroke-linejoin: miter; stroke-miterlimit: 4; fill: rgb(255,86,20); fill-rule: nonzero; opacity: 1;"  transform=" translate(-1091.475, -3671.05)" d="M 1058.75 3608.3 C 1058.69 3608.3 1058.63 3608.3 1058.57 3608.3 C 1060.55 3616.38 1062.3999999999999 3624.48 1064.01 3632.63 C 1062.72 3633.12 1061.61 3634.52 1061.85 3636.06 C 1064.6399999999999 3654.2599999999998 1070.1299999999999 3673 1077.75 3691.44 C 1090.89 3707.02 1106.4 3721.9500000000003 1124.38 3733.8 C 1102.5900000000001 3703.3900000000003 1083.48 3671.0600000000004 1067.6100000000001 3635.19 C 1068.3100000000002 3634.82 1068.9 3634.25 1068.91 3633.31 C 1068.95 3625.73 1068.63 3618.18 1067.99 3610.66 C 1064.33 3609.0099999999998 1061.29 3608.2999999999997 1058.75 3608.2999999999997" stroke-linecap="round" />
</g>
		<g transform="matrix(0.13333333 0 0 -0.13333333 14.6785056772 8.2366664607)" id="AoY_g5-kSaRTUF1P2msRP"  >
<path style="stroke: none; stroke-width: 1; stroke-dasharray: none; stroke-linecap: butt; stroke-dashoffset: 0; stroke-linejoin: miter; stroke-miterlimit: 4; fill: rgb(252,146,64); fill-rule: nonzero; opacity: 1;"  transform=" translate(-1458.975, -3454.375)" d="M 1466.87 3448.88 C 1461.76 3452.44 1456.4899999999998 3456.12 1451.08 3459.86 C 1451.08 3459.86 1451.08 3459.8700000000003 1451.08 3459.8700000000003 C 1456.5 3456.1300000000006 1461.75 3452.4500000000003 1466.87 3448.8800000000006 L 1466.87 3448.8800000000006" stroke-linecap="round" />
</g>
		<g transform="matrix(0.13333333 0 0 -0.13333333 14.6785056772 7.0653331567)" id="z0Q6ITLWtBp1TcPEz9ZBB"  >
<path style="stroke: none; stroke-width: 1; stroke-dasharray: none; stroke-linecap: butt; stroke-dashoffset: 0; stroke-linejoin: miter; stroke-miterlimit: 4; fill: rgb(222,42,0); fill-rule: nonzero; opacity: 1;"  transform=" translate(-1458.975, -3463.16)" d="M 1466.87 3448.88 C 1461.75 3452.4500000000003 1456.5 3456.13 1451.08 3459.87 C 1451.22 3465.74 1451.28 3471.6 1451.28 3477.44 C 1456.44 3473.91 1461.45 3470.41 1466.33 3467.01 C 1466.59 3460.9700000000003 1466.77 3454.9300000000003 1466.87 3448.88" stroke-linecap="round" />
</g>
		<g transform="matrix(0.13333333 0 0 -0.13333333 14.4651723492 1.6553332919)" id="F8U5aH_nvbR2rDL7-nOwg"  >
<path style="stroke: none; stroke-width: 1; stroke-dasharray: none; stroke-linecap: butt; stroke-dashoffset: 0; stroke-linejoin: miter; stroke-miterlimit: 4; fill: rgb(255,62,9); fill-rule: nonzero; opacity: 1;"  transform=" translate(-1457.375, -3503.735)" d="M 1466.33 3467.01 C 1461.4499999999998 3470.4100000000003 1456.4399999999998 3473.9100000000003 1451.28 3477.44 C 1451.28 3498.57 1450.3899999999999 3519.55 1448.42 3540.46 C 1452.25 3539.18 1456.1100000000001 3537.94 1459.99 3536.7400000000002 C 1463.16 3513.9 1465.33 3490.51 1466.33 3467.01" stroke-linecap="round" />
</g>
		<g transform="matrix(0.13333333 0 0 -0.13333333 19.5534715876 -11.4813330463)" id="2UqEfKQ-QnzxT1cA-CI97"  >
<path style="stroke: none; stroke-width: 1; stroke-dasharray: none; stroke-linecap: butt; stroke-dashoffset: 0; stroke-linejoin: miter; stroke-miterlimit: 4; fill: rgb(255,86,20); fill-rule: nonzero; opacity: 1;"  transform=" translate(-1495.5372452422, -3602.26)" d="M 1459.99 3536.74 C 1456.11 3537.9399999999996 1452.25 3539.18 1448.42 3540.4599999999996 C 1446.23 3563.6399999999994 1442.71 3586.72 1437.5800000000002 3609.7999999999997 C 1435.1000000000001 3610.6299999999997 1433.4900000000002 3613.9999999999995 1435.91 3615.9599999999996 L 1436.88 3616.6799999999994 C 1437.46 3618.109999999999 1438.8100000000002 3619.0099999999993 1440.2900000000002 3619.1999999999994 C 1466.1700000000003 3638.5599999999995 1498.2900000000002 3649.1399999999994 1527.5200000000002 3662.419999999999 C 1531.2400000000002 3664.109999999999 1534.89 3665.9299999999994 1538.5300000000002 3667.7799999999993 C 1544.5000000000002 3664.4299999999994 1550.4500000000003 3660.9299999999994 1556.3600000000001 3657.269999999999 C 1553.0400000000002 3655.719999999999 1549.7600000000002 3654.209999999999 1546.5700000000002 3652.749999999999 C 1513.91 3637.8399999999992 1480.18 3621.749999999999 1445.65 3611.519999999999 C 1451.5400000000002 3587.709999999999 1456.41 3562.5699999999993 1459.99 3536.739999999999" stroke-linecap="round" />
</g>
		<g transform="matrix(0.13333333 0 0 -0.13333333 35.9200792002 7.2219998195)" id="dhodrNAYY7Xrss5GFwgcn"  >
<path style="stroke: none; stroke-width: 1; stroke-dasharray: none; stroke-linecap: butt; stroke-dashoffset: 0; stroke-linejoin: miter; stroke-miterlimit: 4; fill: rgb(222,42,0); fill-rule: nonzero; opacity: 1;"  transform=" translate(-1618.2868054054, -3461.985)" d="M 1560.42 3407.95 C 1559.93 3407.95 1559.44 3407.95 1558.96 3407.96 C 1560.3 3413.3 1561.65 3418.64 1563 3423.98 C 1569 3424.16 1575.17 3425.01 1581.54 3426.53 C 1580.84 3420.9700000000003 1580.04 3415.3900000000003 1579.1499999999999 3409.82 C 1572.6799999999998 3408.55 1566.4599999999998 3407.9500000000003 1560.4199999999998 3407.9500000000003 M 1667.8899999999999 3494.65 C 1669.03 3499.26 1669.6299999999999 3504.03 1669.6799999999998 3508.96 C 1669.6999999999998 3510.75 1669.6399999999999 3512.56 1669.5099999999998 3514.38 C 1671.7999999999997 3514.9300000000003 1674.0899999999997 3515.48 1676.3799999999997 3516.02 C 1677.4999999999995 3509.64 1677.8499999999997 3503.32 1677.4599999999996 3497.07 C 1674.2899999999995 3496.2200000000003 1671.0999999999997 3495.4100000000003 1667.8899999999996 3494.65" stroke-linecap="round" />
</g>
		<g transform="matrix(0.13333333 0 0 -0.13333333 35.6607564702 6.2626665101)" id="AftkwMwS7UbTa-lep-Drh"  >
<path style="stroke: none; stroke-width: 1; stroke-dasharray: none; stroke-linecap: butt; stroke-dashoffset: 0; stroke-linejoin: miter; stroke-miterlimit: 4; fill: rgb(255,62,9); fill-rule: nonzero; opacity: 1;"  transform=" translate(-1616.3418848819, -3469.18)" d="M 1563 3423.98 C 1568.1 3444.13 1573.27 3464.26 1579.03 3484.25 C 1577.05 3486.48 1576.6499999999999 3490.07 1580.04 3491.63 C 1601.27 3501.38 1625.12 3503.6 1647.71 3509.09 C 1655 3510.8700000000003 1662.26 3512.6400000000003 1669.51 3514.38 C 1669.64 3512.56 1669.7 3510.75 1669.68 3508.96 C 1669.63 3504.03 1669.03 3499.26 1667.89 3494.65 C 1662.8600000000001 3493.46 1657.7700000000002 3492.37 1652.6000000000001 3491.36 C 1632.66 3487.46 1611.93 3482.02 1591.43 3482.02 C 1589.2 3482.02 1586.97 3482.09 1584.74 3482.22 C 1585.09 3464.1899999999996 1583.91 3445.4599999999996 1581.54 3426.5299999999997 C 1575.17 3425.0099999999998 1569 3424.16 1563 3423.9799999999996" stroke-linecap="round" />
</g>
		<g transform="matrix(0.13333333 0 0 -0.13333333 4.6125059288 2.2459999438)" id="D3Ge-fps9xLZatbor-6xy"  >
<path style="stroke: none; stroke-width: 1; stroke-dasharray: none; stroke-linecap: butt; stroke-dashoffset: 0; stroke-linejoin: miter; stroke-miterlimit: 4; fill: rgb(252,146,64); fill-rule: nonzero; opacity: 1;"  transform=" translate(-1383.48, -3499.305)" d="M 1391.32 3495.46 C 1386.3 3497.98 1381.06 3500.55 1375.6399999999999 3503.14 C 1375.6399999999999 3503.14 1375.6399999999999 3503.15 1375.6399999999999 3503.15 C 1381.06 3500.57 1386.3 3498 1391.32 3495.4700000000003 C 1391.32 3495.46 1391.32 3495.46 1391.32 3495.46" stroke-linecap="round" />
</g>
		<g transform="matrix(0.13333333 0 0 -0.13333333 4.6398392615 1.1419999714)" id="GFxTQ1oxbVL_7lEy-0v-z"  >
<path style="stroke: none; stroke-width: 1; stroke-dasharray: none; stroke-linecap: butt; stroke-dashoffset: 0; stroke-linejoin: miter; stroke-miterlimit: 4; fill: rgb(222,42,0); fill-rule: nonzero; opacity: 1;"  transform=" translate(-1383.685, -3507.585)" d="M 1391.32 3495.47 C 1386.3 3498 1381.06 3500.5699999999997 1375.6399999999999 3503.1499999999996 C 1375.83 3508.68 1375.9599999999998 3514.2 1376.04 3519.7 C 1381.45 3517.1499999999996 1386.7 3514.6099999999997 1391.73 3512.12 C 1391.66 3506.5699999999997 1391.53 3501.02 1391.32 3495.47" stroke-linecap="round" />
</g>
		<g transform="matrix(0.13333333 0 0 -0.13333333 4.6072204122 -3.3119999172)" id="ubcYE_rJoklW3RQ5DyeUE"  >
<path style="stroke: none; stroke-width: 1; stroke-dasharray: none; stroke-linecap: butt; stroke-dashoffset: 0; stroke-linejoin: miter; stroke-miterlimit: 4; fill: rgb(255,62,9); fill-rule: nonzero; opacity: 1;"  transform=" translate(-1383.4403586242, -3540.99)" d="M 1391.73 3512.12 C 1386.7 3514.6099999999997 1381.45 3517.15 1376.04 3519.7 C 1376.26 3536.5 1375.93 3553.1899999999996 1375.1 3569.8599999999997 C 1379.8999999999999 3567.64 1385.01 3565.3399999999997 1390.37 3562.9999999999995 C 1391.5 3546.2199999999993 1391.9399999999998 3529.1899999999996 1391.7299999999998 3512.1199999999994" stroke-linecap="round" />
</g>
		<g transform="matrix(0.13333333 0 0 -0.13333333 11.2863335059 -15.1766662872)" id="QXDzJqytGXxcnkX6zduZ4"  >
<path style="stroke: none; stroke-width: 1; stroke-dasharray: none; stroke-linecap: butt; stroke-dashoffset: 0; stroke-linejoin: miter; stroke-miterlimit: 4; fill: rgb(255,86,20); fill-rule: nonzero; opacity: 1;"  transform=" translate(-1433.5337080793, -3629.975)" d="M 1390.37 3563 C 1385.01 3565.34 1379.8999999999999 3567.64 1375.1 3569.86 C 1373.98 3592.3 1371.9399999999998 3614.71 1369.09 3637.31 C 1368.6599999999999 3640.71 1371.56 3642.59 1374.47 3642.59 C 1376.31 3642.59 1378.16 3641.84 1379.16 3640.2400000000002 C 1397.15 3661.1200000000003 1427.5700000000002 3670.92 1451.77 3682.73 C 1460.52 3687 1469.01 3691.95 1477.5 3696.95 C 1484.38 3694.1699999999996 1491.23 3691.25 1498.02 3688.1899999999996 C 1483.65 3678.3199999999997 1467 3670.97 1451.85 3663.8899999999994 C 1429.34 3653.379999999999 1405.1499999999999 3639.859999999999 1380.3799999999999 3636.0799999999995 C 1385.3899999999999 3612.7299999999996 1388.6599999999999 3588.1399999999994 1390.37 3562.9999999999995" stroke-linecap="round" />
</g>
		<g transform="matrix(0.13333333 0 0 -0.13333333 -22.8254933852 -7.6633331418)" id="313MTU8xmXaxs8hKFZdw-"  >
<path style="stroke: none; stroke-width: 1; stroke-dasharray: none; stroke-linecap: butt; stroke-dashoffset: 0; stroke-linejoin: miter; stroke-miterlimit: 4; fill: rgb(252,146,64); fill-rule: nonzero; opacity: 1;"  transform=" translate(-1177.695, -3573.625)" d="M 1183.88 3572.22 C 1179.7 3573.2 1175.5800000000002 3574.1299999999997 1171.5100000000002 3574.99 C 1171.5100000000002 3575 1171.5100000000002 3575.02 1171.5100000000002 3575.0299999999997 C 1175.5900000000001 3574.16 1179.7100000000003 3573.24 1183.88 3572.2599999999998 C 1183.88 3572.2499999999995 1183.88 3572.2299999999996 1183.88 3572.22" stroke-linecap="round" />
</g>
		<g transform="matrix(0.13333333 0 0 -0.13333333 -22.7261600544 -8.719999782)" id="jp7F_lwIlifsCimwRUMjI"  >
<path style="stroke: none; stroke-width: 1; stroke-dasharray: none; stroke-linecap: butt; stroke-dashoffset: 0; stroke-linejoin: miter; stroke-miterlimit: 4; fill: rgb(222,42,0); fill-rule: nonzero; opacity: 1;"  transform=" translate(-1178.44, -3581.55)" d="M 1183.88 3572.26 C 1179.71 3573.2400000000002 1175.5900000000001 3574.1600000000003 1171.5100000000002 3575.03 C 1172.1600000000003 3580.3 1172.7100000000003 3585.57 1173.1400000000003 3590.84 C 1177.1700000000003 3589.98 1181.2500000000002 3589.06 1185.3700000000003 3588.09 C 1185.0300000000004 3582.83 1184.5300000000004 3577.55 1183.8800000000003 3572.26" stroke-linecap="round" />
</g>
		<g transform="matrix(0.13333333 0 0 -0.13333333 -22.5823635089 -12.2079996948)" id="XuErmb-RddbSrSZLclWT8"  >
<path style="stroke: none; stroke-width: 1; stroke-dasharray: none; stroke-linecap: butt; stroke-dashoffset: 0; stroke-linejoin: miter; stroke-miterlimit: 4; fill: rgb(255,62,9); fill-rule: nonzero; opacity: 1;"  transform=" translate(-1179.5184741181, -3607.71)" d="M 1185.37 3588.09 C 1181.25 3589.06 1177.1699999999998 3589.98 1173.1399999999999 3590.84 C 1174.1399999999999 3603.01 1174.4999999999998 3615.19 1173.9999999999998 3627.33 C 1177.5499999999997 3626.91 1181.1299999999999 3626.44 1184.7499999999998 3625.93 C 1186.0899999999997 3613.5099999999998 1186.1999999999998 3600.85 1185.3699999999997 3588.0899999999997" stroke-linecap="round" />
</g>
		<g transform="matrix(0.13333333 0 0 -0.13333333 -17.8285432076 -23.2199994195)" id="A75YnGkgJ5b3_1UJ1Wsrr"  >
<path style="stroke: none; stroke-width: 1; stroke-dasharray: none; stroke-linecap: butt; stroke-dashoffset: 0; stroke-linejoin: miter; stroke-miterlimit: 4; fill: rgb(255,86,20); fill-rule: nonzero; opacity: 1;"  transform=" translate(-1215.1721272696, -3690.3)" d="M 1184.75 3625.93 C 1181.13 3626.44 1177.55 3626.91 1174 3627.33 C 1173.35 3643.02 1171.25 3658.66 1167.2 3674.21 C 1166.07 3674.32 1164.96 3674.37 1163.82 3674.6 C 1161.6899999999998 3675.0299999999997 1161.1599999999999 3677.88 1162.57 3679.2999999999997 C 1186.87 3703.7499999999995 1212.8 3729.22 1238.87 3752.12 C 1239.81 3752.96 1240.77 3753.8199999999997 1241.7099999999998 3754.67 C 1250.7299999999998 3753.17 1259.6899999999998 3751.66 1268.5599999999997 3750.15 C 1257.5399999999997 3741.3 1246.6199999999997 3732.6600000000003 1237.1199999999997 3723.63 C 1220.1899999999996 3707.51 1198.0999999999997 3675.59 1172.0799999999997 3674.12 C 1178.9599999999998 3658.69 1182.9599999999998 3642.52 1184.7499999999998 3625.93" stroke-linecap="round" />
</g>
		<g transform="matrix(0.13333333 0 0 -0.13333333 -6.3128271314 -2.4973332709)" id="foSnLMiRT-Hhg87rdl2aa"  >
<path style="stroke: none; stroke-width: 1; stroke-dasharray: none; stroke-linecap: butt; stroke-dashoffset: 0; stroke-linejoin: miter; stroke-miterlimit: 4; fill: rgb(255,148,71); fill-rule: nonzero; opacity: 1;"  transform=" translate(-1301.54, -3534.88)" d="M 1308.96 3532 C 1304.05 3533.93 1299.1000000000001 3535.85 1294.1100000000001 3537.73 C 1294.1100000000001 3537.7400000000002 1294.1100000000001 3537.75 1294.1100000000001 3537.76 C 1299.0900000000001 3535.88 1304.0700000000002 3533.9500000000003 1308.97 3532.0200000000004 C 1308.97 3532.01 1308.97 3532.01 1308.96 3532.0000000000005" stroke-linecap="round" />
</g>
		<g transform="matrix(0.13333333 0 0 -0.13333333 -6.128827136 -3.5593332443)" id="a94cPcDhz_-sKdZwWQAox"  >
<path style="stroke: none; stroke-width: 1; stroke-dasharray: none; stroke-linecap: butt; stroke-dashoffset: 0; stroke-linejoin: miter; stroke-miterlimit: 4; fill: rgb(222,42,0); fill-rule: nonzero; opacity: 1;"  transform=" translate(-1302.92, -3542.845)" d="M 1308.97 3532.02 C 1304.07 3533.95 1299.09 3535.88 1294.1100000000001 3537.7599999999998 C 1294.65 3543.0699999999997 1295.1200000000001 3548.37 1295.5200000000002 3553.6699999999996 C 1300.9700000000003 3551.6099999999997 1306.38 3549.5199999999995 1311.7300000000002 3547.4099999999994 C 1310.8500000000001 3542.1899999999996 1309.9100000000003 3537.0499999999993 1308.9700000000003 3532.0199999999995" stroke-linecap="round" />
</g>
		<g transform="matrix(0.13333333 0 0 -0.13333333 -5.6881604803 -7.7193331404)" id="IsU_2TaXNYCby4W_pVBrf"  >
<path style="stroke: none; stroke-width: 1; stroke-dasharray: none; stroke-linecap: butt; stroke-dashoffset: 0; stroke-linejoin: miter; stroke-miterlimit: 4; fill: rgb(255,62,9); fill-rule: nonzero; opacity: 1;"  transform=" translate(-1306.225, -3574.045)" d="M 1311.73 3547.41 C 1306.38 3549.52 1300.97 3551.6099999999997 1295.52 3553.67 C 1296.71 3569.4 1297.27 3585.09 1297.03 3600.6800000000003 C 1303.96 3598.57 1310.62 3596.4400000000005 1316.93 3594.3100000000004 C 1316.45 3578.7100000000005 1314.3200000000002 3562.7300000000005 1311.73 3547.4100000000003" stroke-linecap="round" />
</g>
		<g transform="matrix(0.13333333 0 0 -0.13333333 -0.074734463 -19.2699995183)" id="-uwlnB-42A5GafrQPGsPa"  >
<path style="stroke: none; stroke-width: 1; stroke-dasharray: none; stroke-linecap: butt; stroke-dashoffset: 0; stroke-linejoin: miter; stroke-miterlimit: 4; fill: rgb(255,86,20); fill-rule: nonzero; opacity: 1;"  transform=" translate(-1348.3256961828, -3660.675)" d="M 1316.93 3594.31 C 1310.6200000000001 3596.44 1303.96 3598.57 1297.03 3600.68 C 1296.73 3619.68 1295.25 3638.5499999999997 1292.28 3657.19 C 1290.56 3657.57 1289.31 3659.4500000000003 1290.91 3660.9700000000003 L 1291.88 3661.82 C 1292.24 3664.38 1294.3700000000001 3666 1296.63 3666 C 1317.7600000000002 3684.14 1344.1000000000001 3697.73 1366.5500000000002 3714.11 C 1371.9700000000003 3718.06 1377.3700000000001 3722.4900000000002 1382.8000000000002 3727.04 C 1390.7500000000002 3725.06 1398.65 3722.98 1406.4800000000002 3720.8 C 1395.5800000000002 3713.11 1384.5400000000002 3706.02 1375.0700000000002 3699.52 C 1353.5400000000002 3684.74 1329.4600000000003 3666.28 1303.5100000000002 3659.25 C 1314.5800000000002 3640.86 1317.6600000000003 3618.02 1316.9300000000003 3594.31" stroke-linecap="round" />
</g>
		<g transform="matrix(0.13333333 0 0 -0.13333333 21.937838829 11.6386663757)" id="cg34Q-HHtFZrqrQjtRozf"  >
<path style="stroke: none; stroke-width: 1; stroke-dasharray: none; stroke-linecap: butt; stroke-dashoffset: 0; stroke-linejoin: miter; stroke-miterlimit: 4; fill: rgb(222,42,0); fill-rule: nonzero; opacity: 1;"  transform=" translate(-1513.42, -3428.86)" d="M 1522.12 3416.02 C 1515.6799999999998 3418.66 1509.3 3421.85 1502.87 3425.5 C 1503.53 3430.92 1504.1 3436.32 1504.6 3441.7 C 1511.12 3437.8999999999996 1517.54 3434.58 1523.9699999999998 3431.87 C 1523.4199999999998 3426.58 1522.8099999999997 3421.2999999999997 1522.12 3416.02" stroke-linecap="round" />
</g>
		<g transform="matrix(0.13333333 0 0 -0.13333333 22.249695048 5.0326665409)" id="8LDl1u-8qy2d6TAD6HepD"  >
<path style="stroke: none; stroke-width: 1; stroke-dasharray: none; stroke-linecap: butt; stroke-dashoffset: 0; stroke-linejoin: miter; stroke-miterlimit: 4; fill: rgb(255,62,9); fill-rule: nonzero; opacity: 1;"  transform=" translate(-1515.7589217009, -3478.405)" d="M 1523.97 3431.87 C 1517.54 3434.58 1511.1200000000001 3437.9 1504.6000000000001 3441.7 C 1507.19 3469.6299999999997 1507.71 3497.14 1507.6100000000001 3524.9399999999996 C 1513.64 3523.8699999999994 1519.64 3522.99 1525.5500000000002 3522.3399999999997 C 1527.89 3493.3399999999997 1527.14 3462.6099999999997 1523.9700000000003 3431.87" stroke-linecap="round" />
</g>
		<g transform="matrix(0.13333333 0 0 -0.13333333 36.7618384584 -11.6313330426)" id="8Nw1uEJzvB3Ata9P9LEKs"  >
<path style="stroke: none; stroke-width: 1; stroke-dasharray: none; stroke-linecap: butt; stroke-dashoffset: 0; stroke-linejoin: miter; stroke-miterlimit: 4; fill: rgb(222,42,0); fill-rule: nonzero; opacity: 1;"  transform=" translate(-1624.6, -3603.385)" d="M 1630.75 3597.04 C 1626.8 3601.36 1622.71 3605.57 1618.54 3609.64 C 1622.72 3605.5699999999997 1626.8 3601.3599999999997 1630.75 3597.04 C 1630.75 3597.04 1630.75 3597.04 1630.75 3597.04 M 1618.54 3609.64 C 1618.51 3609.67 1618.48 3609.7 1618.45 3609.73 C 1618.48 3609.7 1618.51 3609.67 1618.54 3609.64" stroke-linecap="round" />
</g>
		<g transform="matrix(0.13333333 0 0 -0.13333333 29.1618822117 -6.7186664987)" id="Yzbk54qb-H9RLNguaT3u9"  >
<path style="stroke: none; stroke-width: 1; stroke-dasharray: none; stroke-linecap: butt; stroke-dashoffset: 0; stroke-linejoin: miter; stroke-miterlimit: 4; fill: rgb(255,86,20); fill-rule: nonzero; opacity: 1;"  transform=" translate(-1567.6003267251, -3566.54)" d="M 1525.55 3522.34 C 1519.6399999999999 3522.9900000000002 1513.6399999999999 3523.8700000000003 1507.61 3524.94 C 1507.55 3538.86 1507.34 3552.86 1507.1499999999999 3567.01 C 1503.6899999999998 3567.7400000000002 1503.6999999999998 3573.0800000000004 1506.36 3575.09 C 1526.75 3590.54 1553.4199999999998 3596.23 1578.03 3601.75 C 1591.1 3604.68 1604.19 3608.18 1617.41 3610.74 C 1617.76 3610.3999999999996 1618.1000000000001 3610.0699999999997 1618.45 3609.7299999999996 C 1618.48 3609.6999999999994 1618.51 3609.6699999999996 1618.54 3609.6399999999994 L 1618.54 3609.6399999999994 C 1622.71 3605.5699999999993 1626.8 3601.359999999999 1630.75 3597.0399999999995 C 1612.57 3589.6499999999996 1592.52 3586.1499999999996 1573.6 3581.8799999999997 C 1555.2199999999998 3577.74 1537.1899999999998 3572.0199999999995 1518.6899999999998 3568.66 C 1521.9999999999998 3553.95 1524.2499999999998 3538.41 1525.5499999999997 3522.3399999999997" stroke-linecap="round" />
</g>
		<g transform="matrix(0.13333333 0 0 -0.13333333 -13.6308269484 -5.1046665391)" id="_hWMZ5byt2WuiFF4wExuq"  >
<path style="stroke: none; stroke-width: 1; stroke-dasharray: none; stroke-linecap: butt; stroke-dashoffset: 0; stroke-linejoin: miter; stroke-miterlimit: 4; fill: rgb(255,148,71); fill-rule: nonzero; opacity: 1;"  transform=" translate(-1246.655, -3554.435)" d="M 1252.14 3552.64 C 1248.48 3553.8599999999997 1244.8200000000002 3555.0499999999997 1241.17 3556.21 C 1241.17 3556.21 1241.17 3556.23 1241.17 3556.23 C 1244.8200000000002 3555.07 1248.49 3553.88 1252.14 3552.67 C 1252.14 3552.66 1252.14 3552.65 1252.14 3552.64" stroke-linecap="round" />
</g>
		<g transform="matrix(0.13333333 0 0 -0.13333333 -13.5108269514 -6.1739998457)" id="cNXRp5MCNkdIZNs17D5fW"  >
<path style="stroke: none; stroke-width: 1; stroke-dasharray: none; stroke-linecap: butt; stroke-dashoffset: 0; stroke-linejoin: miter; stroke-miterlimit: 4; fill: rgb(222,42,0); fill-rule: nonzero; opacity: 1;"  transform=" translate(-1247.555, -3562.455)" d="M 1252.14 3552.67 C 1248.49 3553.88 1244.8200000000002 3555.07 1241.17 3556.23 C 1241.66 3561.66 1241.99 3566.9900000000002 1242.17 3572.2400000000002 C 1246.0800000000002 3571.0000000000005 1250.01 3569.7200000000003 1253.94 3568.42 C 1253.39 3562.84 1252.76 3557.55 1252.14 3552.67" stroke-linecap="round" />
</g>
		<g transform="matrix(0.13333333 0 0 -0.13333333 -13.4542889659 -10.1146664138)" id="-gtz4pIA7B0ZNc88HKg82"  >
<path style="stroke: none; stroke-width: 1; stroke-dasharray: none; stroke-linecap: butt; stroke-dashoffset: 0; stroke-linejoin: miter; stroke-miterlimit: 4; fill: rgb(255,62,9); fill-rule: nonzero; opacity: 1;"  transform=" translate(-1247.979034902, -3592.01)" d="M 1253.94 3568.42 C 1250.01 3569.7200000000003 1246.0800000000002 3571 1242.17 3572.2400000000002 C 1242.68 3587.1000000000004 1242.02 3601.34 1240.3600000000001 3615.6000000000004 C 1245.3600000000001 3614.4800000000005 1250.3100000000002 3613.3100000000004 1255.2400000000002 3612.1000000000004 C 1256.1200000000003 3597.2000000000003 1255.2600000000002 3581.9800000000005 1253.9400000000003 3568.4200000000005" stroke-linecap="round" />
</g>
		<g transform="matrix(0.13333333 0 0 -0.13333333 -8.5075492498 -21.3713327991)" id="ZCHskqSeCzznro96lvJlO"  >
<path style="stroke: none; stroke-width: 1; stroke-dasharray: none; stroke-linecap: butt; stroke-dashoffset: 0; stroke-linejoin: miter; stroke-miterlimit: 4; fill: rgb(255,86,20); fill-rule: nonzero; opacity: 1;"  transform=" translate(-1285.0795837004, -3676.435)" d="M 1255.24 3612.1 C 1250.31 3613.31 1245.36 3614.48 1240.36 3615.6 C 1238.1999999999998 3634.21 1234.35 3652.85 1229.2099999999998 3672.94 C 1228.9499999999998 3673.9500000000003 1229.7299999999998 3674.68 1230.5799999999997 3674.68 C 1230.9099999999996 3674.68 1231.2599999999998 3674.5699999999997 1231.5599999999997 3674.31 L 1233.0199999999998 3672.81 C 1252.8099999999997 3692.77 1278.7899999999997 3706.98 1300.7899999999997 3724.35 C 1307.3099999999997 3729.49 1313.7699999999998 3735.13 1320.3099999999997 3740.77 C 1327.2599999999998 3739.42 1334.1499999999996 3738.02 1340.9999999999998 3736.59 C 1330.6899999999998 3728.1600000000003 1319.5999999999997 3720.55 1309.3999999999999 3713.1800000000003 C 1286.9699999999998 3696.9800000000005 1263.54 3677.82 1237.08 3668.6200000000003 C 1249.1499999999999 3654.2100000000005 1253.97 3633.4700000000003 1255.24 3612.1000000000004" stroke-linecap="round" />
</g>
		<g transform="matrix(0.13333333 0 0 -0.13333333 -5.2172306565 -26.3190925852)" id="DwxWY0nQVaDstfbswsOJ7"  >
<path style="stroke: none; stroke-width: 1; stroke-dasharray: none; stroke-linecap: butt; stroke-dashoffset: 0; stroke-linejoin: miter; stroke-miterlimit: 4; fill: rgb(255,255,255); fill-rule: nonzero; opacity: 1;"  transform=" translate(-1309.756973767, -3713.5431993239)" d="M 1452.5 3686.41 C 1454.74 3699.67 1392.64 3721.2 1313.8 3734.52 C 1234.97 3747.83 1169.24 3747.88 1167.01 3734.64 C 1164.78 3721.39 1230.92 3723.8399999999997 1309.75 3710.5299999999997 C 1388.6 3697.2099999999996 1450.26 3673.16 1452.5 3686.41" stroke-linecap="round" />
</g>
		<g transform="matrix(0.13333333 0 0 -0.13333333 31.8365717016 -9.2945679839)" id="APWq8YiY6AV-ULarFZv5u"  >
<path style="stroke: none; stroke-width: 1; stroke-dasharray: none; stroke-linecap: butt; stroke-dashoffset: 0; stroke-linejoin: miter; stroke-miterlimit: 4; fill: rgb(255,255,255); fill-rule: nonzero; opacity: 1;"  transform=" translate(-1587.6604984003, -3585.8592616219)" d="M 1649.88 3540.22 C 1658.14 3551.22 1636.8000000000002 3581.22 1602.2 3607.23 C 1567.6100000000001 3633.2400000000002 1532.8500000000001 3645.42 1524.5900000000001 3634.42 C 1516.3300000000002 3623.4300000000003 1565.5300000000002 3624.77 1587.2400000000002 3587.32 C 1624.4900000000002 3523.03 1641.6200000000003 3529.2200000000003 1649.8800000000003 3540.2200000000003" stroke-linecap="round" />
</g>
</g>
</g>
</svg>